PathFileType	4	(X/Y/Z)	./resultDataOpenSim/trcMotMarkerGrf/sub10/qtm-15-01.trc
DataRate	CameraRate	NumFrames	NumMarkers	Units	OrigDataRate	OrigDataStartFrame	OrigNumFrames
250.000000	250.000000	13	24	m	250.000000	340	452
Frame#	Time	L.Toe.Tip			R.Toe.Tip			L.Ankle.Lat			R.Ankle.Lat			L.Ankle.Med			R.Ankle.Med			L.Heel			R.Heel			L.Knee.Lat			R.Knee.Lat			L.Knee.Med			R.Knee.Med			L.Thigh.Upper			R.Thigh.Upper			L.ASIS			R.ASIS			V.Sacral			L.Acromium			R.Acromium			C7			L.Elbow			R.Elbow			L.Wrist.Lat			R.Wrist.Lat
		X1	Y1	Z1	X2	Y2	Z2	X3	Y3	Z3	X4	Y4	Z4	X5	Y5	Z5	X6	Y6	Z6	X7	Y7	Z7	X8	Y8	Z8	X9	Y9	Z9	X10	Y10	Z10	X11	Y11	Z11	X12	Y12	Z12	X13	Y13	Z13	X14	Y14	Z14	X15	Y15	Z15	X16	Y16	Z16	X17	Y17	Z17	X18	Y18	Z18	X19	Y19	Z19	X20	Y20	Z20	X21	Y21	Z21	X22	Y22	Z22	X23	Y23	Z23	X24	Y24	Z24

340	1.356	0.61033476	0.12119913	-0.22005428	0.86365034	0.038317768	-0.01584141	0.55815869	0.24702983	-0.23740055	0.72796832	0.058677068	0.043613928	0.59100359	0.24788922	-0.15833195	0.73694129	0.082784723	-0.044164031	0.49860011	0.2754319	-0.18611252	0.67010571	0.036183261	0.0064297267	0.86345617	0.45951798	-0.27367163	0.83682078	0.4435741	0.054975295	0.89295004	0.42342893	-0.15765928	0.82851047	0.45299694	-0.072636583	0.75780677	0.82265066	-0.26281888	0.7999134	0.86158651	0.11953253	0.83026393	0.92909451	-0.20000131	0.86485128	0.94788144	0.038182308	0.65367356	0.96920213	-0.058836917	0.84484055	1.4213918	-0.22964958	0.80306716	1.4273164	0.07116412	0.75976299	1.4499679	-0.089307265	0.68682426	1.1451822	-0.3669418	0.67124052	1.1473818	0.22860334	0.79294334	0.99050034	-0.5334256	0.6867388	1.0932066	0.47139923
341	1.36	0.62805705	0.1190569	-0.22276552	0.86363563	0.038320234	-0.015828203	0.57305029	0.24343354	-0.23994492	0.72792239	0.058831557	0.043593565	0.60553524	0.24483726	-0.1606552	0.73691496	0.083029751	-0.04410745	0.51245828	0.27039315	-0.18877675	0.67001156	0.036401601	0.0063539493	0.87444886	0.46210001	-0.27415895	0.83677314	0.44397034	0.055638633	0.90426114	0.42640696	-0.15826359	0.82822268	0.45330164	-0.072096968	0.76443683	0.8242199	-0.26334156	0.80429705	0.86277638	0.11888688	0.83664277	0.93053304	-0.20008618	0.86978214	0.94902099	0.038070055	0.65924791	0.97060044	-0.060218374	0.8499279	1.4221544	-0.23071498	0.80853783	1.427894	0.071313324	0.76479232	1.451108	-0.089876412	0.68989598	1.1450365	-0.36379504	0.6785216	1.1450264	0.22632242	0.79217073	0.98676717	-0.52892318	0.69980723	1.0864912	0.46760329
342	1.364	0.64572994	0.11677806	-0.22536563	0.86363286	0.03831086	-0.015818303	0.58809419	0.23962398	-0.24248134	0.72788689	0.05897288	0.043556928	0.62032598	0.24159914	-0.16299994	0.73688128	0.083258993	-0.04404917	0.52649942	0.26509635	-0.1914526	0.6698466	0.036553493	0.0062732457	0.8853312	0.46463588	-0.27464056	0.83680761	0.44436343	0.056303158	0.91545737	0.42932581	-0.15884969	0.82752193	0.4536167	-0.071652155	0.77110983	0.82571552	-0.26386547	0.8087495	0.86390879	0.1182054	0.84310986	0.93192394	-0.2002039	0.87470175	0.95009667	0.03795435	0.6647994	0.97189598	-0.061654664	0.85500973	1.4228414	-0.23177395	0.8138719	1.4283354	0.07140892	0.76980807	1.4521948	-0.090413229	0.69315339	1.1447915	-0.36043471	0.68584601	1.1425739	0.22401507	0.79146473	0.98323397	-0.52446981	0.71289118	1.0799078	0.46367188
343	1.368	0.66348156	0.11435051	-0.22790093	0.86364099	0.038287129	-0.015815533	0.60325006	0.23563493	-0.24497102	0.72785575	0.059105167	0.043509777	0.63566793	0.23814939	-0.16544106	0.73686235	0.083465616	-0.043999592	0.54073239	0.25953877	-0.19413515	0.6697066	0.036657255	0.0061660536	0.89611491	0.46711257	-0.27511542	0.83691918	0.44474858	0.056968394	0.92631147	0.43219133	-0.15935195	0.82680996	0.45392498	-0.071166781	0.77781564	0.82712216	-0.26439194	0.81325655	0.86497475	0.11750805	0.8496039	0.93325991	-0.20034923	0.87960344	0.95110354	0.037834385	0.67033051	0.97310087	-0.063136285	0.86007895	1.4234533	-0.23282429	0.81911235	1.4286636	0.07146493	0.77481398	1.4532299	-0.090909009	0.69656217	1.1444908	-0.35693573	0.69339699	1.1400552	0.22162144	0.79083635	0.97987997	-0.52005212	0.72598641	1.0734544	0.45960426
344	1.372	0.68150782	0.11183406	-0.23042745	0.86365241	0.03825694	-0.015819746	0.61849137	0.23149078	-0.24740337	0.72781768	0.059234236	0.043460524	0.65141065	0.23450126	-0.16793289	0.73689792	0.083651994	-0.043975533	0.55513979	0.25372687	-0.19678821	0.66970386	0.036765833	0.0060192283	0.9067852	0.46951076	-0.27557362	0.83702391	0.44512775	0.057625581	0.93676705	0.43499643	-0.15976883	0.8262791	0.45421456	-0.070585632	0.78453579	0.8284328	-0.26492169	0.81779703	0.86596632	0.11681127	0.85607903	0.93452613	-0.20051386	0.88448362	0.95203866	0.037711008	0.67584758	0.97424178	-0.064638294	0.86512328	1.4239907	-0.23385861	0.82431305	1.4289025	0.07150278	0.77981778	1.4542081	-0.091366286	0.70002744	1.1441895	-0.35345042	0.70126464	1.1375165	0.21912696	0.79029138	0.97669196	-0.5156574	0.73907908	1.0671306	0.45539805
345	1.376	0.69987763	0.10931557	-0.23295789	0.86365704	0.038234218	-0.015825221	0.63380313	0.22720314	-0.24977844	0.72776533	0.059364042	0.043413902	0.66707204	0.23070162	-0.17034231	0.73700182	0.083828357	-0.043979217	0.56969055	0.2476798	-0.19937402	0.66983847	0.036910665	0.0058418975	0.91730689	0.47180366	-0.27601252	0.83702758	0.44551166	0.058267112	0.94690184	0.43773007	-0.16014753	0.82585104	0.45448259	-0.069949826	0.79126548	0.82966868	-0.26545848	0.82234323	0.86687291	0.11612712	0.86254534	0.93571962	-0.2007055	0.88934308	0.95290325	0.037590224	0.68136162	0.97533714	-0.066130342	0.87013136	1.424461	-0.23486993	0.82950766	1.429063	0.071536022	0.78481991	1.4551181	-0.091797358	0.70344854	1.1439328	-0.35012943	0.70929663	1.1349949	0.21659956	0.78983634	0.97366116	-0.51128219	0.7521554	1.0609345	0.45105197
346	1.38	0.71848921	0.10683769	-0.23545813	0.86364772	0.038229331	-0.015826543	0.64919434	0.22277643	-0.2520963	0.72769797	0.059496552	0.043368375	0.68236055	0.2267854	-0.17258286	0.73713325	0.084012339	-0.043991528	0.58438188	0.24141825	-0.20189148	0.670014	0.037092237	0.005656527	0.92764645	0.47396589	-0.27644078	0.83690236	0.44590862	0.058897441	0.95680341	0.44038297	-0.16052545	0.8254163	0.45472399	-0.069306993	0.79803206	0.83087213	-0.26601259	0.82687116	0.8676833	0.11546556	0.86904697	0.93685125	-0.20094171	0.89418485	0.95370166	0.037479798	0.68688644	0.97637815	-0.067593272	0.87510132	1.4248763	-0.23585605	0.83471344	1.4291474	0.071570045	0.7898133	1.4559543	-0.092213316	0.7067965	1.1437346	-0.34701603	0.71720898	1.1325028	0.21414234	0.78947511	0.970781	-0.50692673	0.7652109	1.0548634	0.44656541
347	1.384	0.73721414	0.10437732	-0.23789474	0.86362281	0.038244502	-0.015823575	0.66469835	0.21821051	-0.25436381	0.72761671	0.059633	0.043319026	0.69726215	0.22276591	-0.17463076	0.73723159	0.084222519	-0.043995221	0.59924062	0.23495484	-0.20436517	0.67013689	0.037297448	0.0054783505	0.93777472	0.47597927	-0.27685382	0.83667556	0.44631933	0.059530413	0.96655966	0.44294717	-0.16090221	0.82494312	0.45493312	-0.068677009	0.8049024	0.8320618	-0.26660814	0.83136907	0.86839513	0.11483854	0.87562282	0.93793552	-0.20122213	0.89900937	0.95443482	0.037383009	0.69243239	0.97732984	-0.069036653	0.88004141	1.4252482	-0.2368149	0.83994652	1.4291622	0.071607252	0.79479095	1.4567212	-0.092619977	0.71010774	1.1435914	-0.34406494	0.72486602	1.1300295	0.21179517	0.78920736	0.96804685	-0.50258351	0.77825116	1.0489183	0.44193642
348	1.388	0.75599771	0.10188692	-0.2402614	0.86358558	0.038268355	-0.015821716	0.68034352	0.2135061	-0.25658988	0.72751831	0.059777926	0.043263115	0.71188036	0.21864901	-0.17650189	0.73726352	0.084464483	-0.043988208	0.61428058	0.22829947	-0.20680647	0.67017022	0.03750874	0.0053079913	0.94767663	0.4778316	-0.27722421	0.83640381	0.44673595	0.060169311	0.97627547	0.44541827	-0.16125106	0.82443092	0.45511022	-0.06807223	0.81195381	0.83321728	-0.26727674	0.83583512	0.86901745	0.11426181	0.88223828	0.93897958	-0.20152102	0.90381227	0.95509626	0.037298788	0.69800041	0.97815886	-0.070489401	0.88496313	1.4255806	-0.23773863	0.84521826	1.4291224	0.071646893	0.799749	1.4574206	-0.093021063	0.71341966	1.143504	-0.34122473	0.73232755	1.1275788	0.20953006	0.78903647	0.96545468	-0.49823877	0.79128557	1.0431045	0.43716197
349	1.392	0.77483679	0.099347251	-0.24256231	0.86354155	0.038272197	-0.015827786	0.6961398	0.2086711	-0.25877189	0.72739414	0.059941904	0.043201437	0.72646031	0.21443237	-0.17828138	0.73722799	0.084729495	-0.043971727	0.62949605	0.22147153	-0.20921325	0.67013519	0.037722541	0.0051452896	0.95737576	0.47953085	-0.27753396	0.83615737	0.44714995	0.060805598	0.98599787	0.44779362	-0.1615526	0.82388722	0.45525851	-0.067505736	0.81915281	0.83431346	-0.268016	0.84026915	0.86956198	0.11374775	0.88876607	0.93997947	-0.20181198	0.90858857	0.95567889	0.037226508	0.70358138	0.97885871	-0.071971869	0.8898685	1.425869	-0.23861918	0.8505238	1.4290432	0.071682442	0.80468434	1.4580424	-0.093417594	0.71673917	1.1434775	-0.33847102	0.73969421	1.1251806	0.20732199	0.78897557	0.96299842	-0.4938862	0.80431998	1.0374238	0.43223994
350	1.396	0.7937828	0.096778751	-0.24480617	0.86349412	0.038232341	-0.015841686	0.7120889	0.20371808	-0.260897	0.7272362	0.060135743	0.043131946	0.74128333	0.21010748	-0.18007419	0.73713066	0.085010452	-0.043940913	0.64489119	0.21449817	-0.21159104	0.67007962	0.03795828	0.0050001019	0.96691119	0.48112795	-0.27779808	0.83594438	0.44757144	0.061436346	0.9956444	0.45006215	-0.1618177	0.82337337	0.45538254	-0.066973305	0.82631087	0.83533748	-0.26877356	0.84466566	0.87003783	0.1132938	0.89512631	0.94092367	-0.20209555	0.91333806	0.9561823	0.037166705	0.70916508	0.97943622	-0.073488531	0.89474541	1.4261106	-0.23945876	0.85585598	1.4289291	0.071710132	0.809597	1.4585754	-0.093806568	0.7200613	1.1435167	-0.33579803	0.74701329	1.1228584	0.20517522	0.78904251	0.96066574	-0.48953231	0.81735137	1.0318711	0.42716673
351	1.4	0.81299125	0.094229902	-0.24702066	0.86344223	0.038162977	-0.015854256	0.72819059	0.19865835	-0.26296012	0.72704995	0.060357165	0.043043251	0.75644249	0.20567222	-0.18190033	0.73698878	0.085313488	-0.043896536	0.66046671	0.20739696	-0.2139304	0.67003188	0.038233088	0.0048693302	0.97630438	0.48269339	-0.2780507	0.83568688	0.44801656	0.062056517	1.0050855	0.45220329	-0.16207663	0.82299141	0.45549348	-0.066451085	0.83331125	0.83628562	-0.26951141	0.84901368	0.87044908	0.11288418	0.90139368	0.94179977	-0.20239059	0.91806593	0.95661002	0.037118508	0.71474783	0.97988883	-0.075039308	0.89958736	1.4263074	-0.24026518	0.86122357	1.4287764	0.071736214	0.81449412	1.459021	-0.094183215	0.72338779	1.1436253	-0.33320198	0.75428342	1.1206182	0.20309668	0.78924833	0.95843812	-0.48518531	0.83036931	1.0264384	0.42193279
352	1.404	0.8326182	0.091760089	-0.24923121	0.86338498	0.038103544	-0.015860998	0.74444402	0.19350013	-0.26497423	0.72685959	0.060585908	0.042920075	0.77187839	0.20113801	-0.1836995	0.73686421	0.08564848	-0.043864061	0.67621214	0.20016311	-0.21618092	0.66997958	0.038534865	0.0047096014	0.9855715	0.48424262	-0.27831645	0.83534646	0.4484712	0.062646913	1.0142756	0.45420138	-0.16235519	0.8227556	0.45560027	-0.065931531	0.84026177	0.83716491	-0.27024751	0.85330272	0.87078814	0.11250394	0.90767748	0.94259918	-0.20270133	0.92278101	0.95696484	0.037079078	0.72033201	0.9802161	-0.076615002	0.90440184	1.4264582	-0.24103916	0.86663855	1.428581	0.071765305	0.81938121	1.4593887	-0.09454451	0.72671639	1.143801	-0.33068441	0.76150934	1.1184674	0.20107434	0.78959331	0.95630055	-0.48084774	0.84336637	1.0211222	0.41652614
